<mxfile host="app.diagrams.net" modified="2023-12-04T20:33:10.905Z" agent="Mozilla/5.0 (Windows NT 10.0; Win64; x64) AppleWebKit/537.36 (KHTML, like Gecko) Chrome/119.0.0.0 Safari/537.36" etag="MVMnKs1VgJf0Ppn17FJQ" version="22.1.5" type="device">
  <diagram id="yPxyJZ8AM_hMuL3Unpa9" name="complex gitflow">
    <mxGraphModel dx="1614" dy="1135" grid="1" gridSize="10" guides="1" tooltips="1" connect="1" arrows="1" fold="1" page="1" pageScale="1" pageWidth="1100" pageHeight="850" math="0" shadow="0">
      <root>
        <mxCell id="0" />
        <mxCell id="1" parent="0" />
        <mxCell id="nJXYtws18elxILCtGv2i-5" value="Todo" style="strokeWidth=1;shadow=0;dashed=0;align=center;html=1;shape=mxgraph.mockup.containers.window;align=left;verticalAlign=top;spacingLeft=8;strokeColor2=#008cff;strokeColor3=#c4c4c4;fontColor=#666666;mainText=;fontSize=17;labelBackgroundColor=none;whiteSpace=wrap;" parent="1" vertex="1">
          <mxGeometry x="40" y="50" width="550" height="350" as="geometry" />
        </mxCell>
        <mxCell id="nJXYtws18elxILCtGv2i-6" value="" style="shape=table;startSize=0;container=1;collapsible=0;childLayout=tableLayout;fontSize=16;" parent="1" vertex="1">
          <mxGeometry x="55" y="135" width="520" height="250" as="geometry" />
        </mxCell>
        <mxCell id="nJXYtws18elxILCtGv2i-7" value="" style="shape=tableRow;horizontal=0;startSize=0;swimlaneHead=0;swimlaneBody=0;strokeColor=inherit;top=0;left=0;bottom=0;right=0;collapsible=0;dropTarget=0;fillColor=none;points=[[0,0.5],[1,0.5]];portConstraint=eastwest;fontSize=16;" parent="nJXYtws18elxILCtGv2i-6" vertex="1">
          <mxGeometry width="520" height="50" as="geometry" />
        </mxCell>
        <mxCell id="nJXYtws18elxILCtGv2i-8" value="Задача" style="shape=partialRectangle;html=1;whiteSpace=wrap;connectable=0;strokeColor=inherit;overflow=hidden;fillColor=none;top=0;left=0;bottom=0;right=0;pointerEvents=1;fontSize=16;" parent="nJXYtws18elxILCtGv2i-7" vertex="1">
          <mxGeometry width="173" height="50" as="geometry">
            <mxRectangle width="173" height="50" as="alternateBounds" />
          </mxGeometry>
        </mxCell>
        <mxCell id="nJXYtws18elxILCtGv2i-9" value="Описание" style="shape=partialRectangle;html=1;whiteSpace=wrap;connectable=0;strokeColor=inherit;overflow=hidden;fillColor=none;top=0;left=0;bottom=0;right=0;pointerEvents=1;fontSize=16;" parent="nJXYtws18elxILCtGv2i-7" vertex="1">
          <mxGeometry x="173" width="257" height="50" as="geometry">
            <mxRectangle width="257" height="50" as="alternateBounds" />
          </mxGeometry>
        </mxCell>
        <mxCell id="nJXYtws18elxILCtGv2i-10" value="" style="shape=partialRectangle;html=1;whiteSpace=wrap;connectable=0;strokeColor=inherit;overflow=hidden;fillColor=none;top=0;left=0;bottom=0;right=0;pointerEvents=1;fontSize=16;" parent="nJXYtws18elxILCtGv2i-7" vertex="1">
          <mxGeometry x="430" width="90" height="50" as="geometry">
            <mxRectangle width="90" height="50" as="alternateBounds" />
          </mxGeometry>
        </mxCell>
        <mxCell id="nJXYtws18elxILCtGv2i-11" value="" style="shape=tableRow;horizontal=0;startSize=0;swimlaneHead=0;swimlaneBody=0;strokeColor=inherit;top=0;left=0;bottom=0;right=0;collapsible=0;dropTarget=0;fillColor=none;points=[[0,0.5],[1,0.5]];portConstraint=eastwest;fontSize=16;" parent="nJXYtws18elxILCtGv2i-6" vertex="1">
          <mxGeometry y="50" width="520" height="50" as="geometry" />
        </mxCell>
        <mxCell id="nJXYtws18elxILCtGv2i-12" value="Помыть посуду" style="shape=partialRectangle;html=1;whiteSpace=wrap;connectable=0;strokeColor=inherit;overflow=hidden;fillColor=none;top=0;left=0;bottom=0;right=0;pointerEvents=1;fontSize=16;align=left;spacingLeft=5;" parent="nJXYtws18elxILCtGv2i-11" vertex="1">
          <mxGeometry width="173" height="50" as="geometry">
            <mxRectangle width="173" height="50" as="alternateBounds" />
          </mxGeometry>
        </mxCell>
        <mxCell id="nJXYtws18elxILCtGv2i-13" value="Помыть посуду" style="shape=partialRectangle;html=1;whiteSpace=wrap;connectable=0;strokeColor=inherit;overflow=hidden;fillColor=none;top=0;left=0;bottom=0;right=0;pointerEvents=1;fontSize=16;align=left;spacingLeft=5;" parent="nJXYtws18elxILCtGv2i-11" vertex="1">
          <mxGeometry x="173" width="257" height="50" as="geometry">
            <mxRectangle width="257" height="50" as="alternateBounds" />
          </mxGeometry>
        </mxCell>
        <mxCell id="nJXYtws18elxILCtGv2i-14" value="" style="shape=partialRectangle;html=1;whiteSpace=wrap;connectable=0;strokeColor=inherit;overflow=hidden;fillColor=none;top=0;left=0;bottom=0;right=0;pointerEvents=1;fontSize=16;" parent="nJXYtws18elxILCtGv2i-11" vertex="1">
          <mxGeometry x="430" width="90" height="50" as="geometry">
            <mxRectangle width="90" height="50" as="alternateBounds" />
          </mxGeometry>
        </mxCell>
        <mxCell id="nJXYtws18elxILCtGv2i-15" value="" style="shape=tableRow;horizontal=0;startSize=0;swimlaneHead=0;swimlaneBody=0;strokeColor=inherit;top=0;left=0;bottom=0;right=0;collapsible=0;dropTarget=0;fillColor=none;points=[[0,0.5],[1,0.5]];portConstraint=eastwest;fontSize=16;" parent="nJXYtws18elxILCtGv2i-6" vertex="1">
          <mxGeometry y="100" width="520" height="50" as="geometry" />
        </mxCell>
        <mxCell id="nJXYtws18elxILCtGv2i-16" value="Сделать лабы" style="shape=partialRectangle;html=1;whiteSpace=wrap;connectable=0;strokeColor=inherit;overflow=hidden;fillColor=none;top=0;left=0;bottom=0;right=0;pointerEvents=1;fontSize=16;align=left;spacingLeft=5;" parent="nJXYtws18elxILCtGv2i-15" vertex="1">
          <mxGeometry width="173" height="50" as="geometry">
            <mxRectangle width="173" height="50" as="alternateBounds" />
          </mxGeometry>
        </mxCell>
        <mxCell id="nJXYtws18elxILCtGv2i-17" value="Сделать все задания" style="shape=partialRectangle;html=1;whiteSpace=wrap;connectable=0;strokeColor=inherit;overflow=hidden;fillColor=none;top=0;left=0;bottom=0;right=0;pointerEvents=1;fontSize=16;align=left;spacingLeft=5;" parent="nJXYtws18elxILCtGv2i-15" vertex="1">
          <mxGeometry x="173" width="257" height="50" as="geometry">
            <mxRectangle width="257" height="50" as="alternateBounds" />
          </mxGeometry>
        </mxCell>
        <mxCell id="nJXYtws18elxILCtGv2i-18" value="" style="shape=partialRectangle;html=1;whiteSpace=wrap;connectable=0;strokeColor=inherit;overflow=hidden;fillColor=none;top=0;left=0;bottom=0;right=0;pointerEvents=1;fontSize=16;" parent="nJXYtws18elxILCtGv2i-15" vertex="1">
          <mxGeometry x="430" width="90" height="50" as="geometry">
            <mxRectangle width="90" height="50" as="alternateBounds" />
          </mxGeometry>
        </mxCell>
        <mxCell id="nJXYtws18elxILCtGv2i-19" style="shape=tableRow;horizontal=0;startSize=0;swimlaneHead=0;swimlaneBody=0;strokeColor=inherit;top=0;left=0;bottom=0;right=0;collapsible=0;dropTarget=0;fillColor=none;points=[[0,0.5],[1,0.5]];portConstraint=eastwest;fontSize=16;" parent="nJXYtws18elxILCtGv2i-6" vertex="1">
          <mxGeometry y="150" width="520" height="50" as="geometry" />
        </mxCell>
        <mxCell id="nJXYtws18elxILCtGv2i-20" value="Покормить собаку" style="shape=partialRectangle;html=1;whiteSpace=wrap;connectable=0;strokeColor=inherit;overflow=hidden;fillColor=none;top=0;left=0;bottom=0;right=0;pointerEvents=1;fontSize=16;align=left;spacingLeft=5;" parent="nJXYtws18elxILCtGv2i-19" vertex="1">
          <mxGeometry width="173" height="50" as="geometry">
            <mxRectangle width="173" height="50" as="alternateBounds" />
          </mxGeometry>
        </mxCell>
        <mxCell id="nJXYtws18elxILCtGv2i-21" value="Покормить и выгулять" style="shape=partialRectangle;html=1;whiteSpace=wrap;connectable=0;strokeColor=inherit;overflow=hidden;fillColor=none;top=0;left=0;bottom=0;right=0;pointerEvents=1;fontSize=16;align=left;spacingLeft=5;" parent="nJXYtws18elxILCtGv2i-19" vertex="1">
          <mxGeometry x="173" width="257" height="50" as="geometry">
            <mxRectangle width="257" height="50" as="alternateBounds" />
          </mxGeometry>
        </mxCell>
        <mxCell id="nJXYtws18elxILCtGv2i-22" style="shape=partialRectangle;html=1;whiteSpace=wrap;connectable=0;strokeColor=inherit;overflow=hidden;fillColor=none;top=0;left=0;bottom=0;right=0;pointerEvents=1;fontSize=16;" parent="nJXYtws18elxILCtGv2i-19" vertex="1">
          <mxGeometry x="430" width="90" height="50" as="geometry">
            <mxRectangle width="90" height="50" as="alternateBounds" />
          </mxGeometry>
        </mxCell>
        <mxCell id="nJXYtws18elxILCtGv2i-23" style="shape=tableRow;horizontal=0;startSize=0;swimlaneHead=0;swimlaneBody=0;strokeColor=inherit;top=0;left=0;bottom=0;right=0;collapsible=0;dropTarget=0;fillColor=none;points=[[0,0.5],[1,0.5]];portConstraint=eastwest;fontSize=16;" parent="nJXYtws18elxILCtGv2i-6" vertex="1">
          <mxGeometry y="200" width="520" height="50" as="geometry" />
        </mxCell>
        <mxCell id="nJXYtws18elxILCtGv2i-24" value="Сходить в магазин" style="shape=partialRectangle;html=1;whiteSpace=wrap;connectable=0;strokeColor=inherit;overflow=hidden;fillColor=none;top=0;left=0;bottom=0;right=0;pointerEvents=1;fontSize=16;align=left;spacingLeft=5;" parent="nJXYtws18elxILCtGv2i-23" vertex="1">
          <mxGeometry width="173" height="50" as="geometry">
            <mxRectangle width="173" height="50" as="alternateBounds" />
          </mxGeometry>
        </mxCell>
        <mxCell id="nJXYtws18elxILCtGv2i-25" value="Купить хлеб, батон" style="shape=partialRectangle;html=1;whiteSpace=wrap;connectable=0;strokeColor=inherit;overflow=hidden;fillColor=none;top=0;left=0;bottom=0;right=0;pointerEvents=1;fontSize=16;align=left;spacingLeft=5;" parent="nJXYtws18elxILCtGv2i-23" vertex="1">
          <mxGeometry x="173" width="257" height="50" as="geometry">
            <mxRectangle width="257" height="50" as="alternateBounds" />
          </mxGeometry>
        </mxCell>
        <mxCell id="nJXYtws18elxILCtGv2i-26" style="shape=partialRectangle;html=1;whiteSpace=wrap;connectable=0;strokeColor=inherit;overflow=hidden;fillColor=none;top=0;left=0;bottom=0;right=0;pointerEvents=1;fontSize=16;" parent="nJXYtws18elxILCtGv2i-23" vertex="1">
          <mxGeometry x="430" width="90" height="50" as="geometry">
            <mxRectangle width="90" height="50" as="alternateBounds" />
          </mxGeometry>
        </mxCell>
        <mxCell id="nJXYtws18elxILCtGv2i-31" value="Добавить задачу" style="rounded=1;html=1;shadow=0;dashed=0;whiteSpace=wrap;fontSize=10;fillColor=#E6E6E6;align=center;strokeColor=#B3B3B3;fontColor=#333333;" parent="1" vertex="1">
          <mxGeometry x="55" y="90" width="105.5" height="30" as="geometry" />
        </mxCell>
        <mxCell id="nJXYtws18elxILCtGv2i-32" value="Удалить" style="rounded=1;html=1;shadow=0;dashed=0;whiteSpace=wrap;fontSize=10;fillColor=#E6E6E6;align=center;strokeColor=#B3B3B3;fontColor=#333333;" parent="1" vertex="1">
          <mxGeometry x="495" y="198" width="70" height="30" as="geometry" />
        </mxCell>
        <mxCell id="nJXYtws18elxILCtGv2i-34" value="Удалить" style="rounded=1;html=1;shadow=0;dashed=0;whiteSpace=wrap;fontSize=10;fillColor=#E6E6E6;align=center;strokeColor=#B3B3B3;fontColor=#333333;" parent="1" vertex="1">
          <mxGeometry x="495" y="245" width="70" height="30" as="geometry" />
        </mxCell>
        <mxCell id="nJXYtws18elxILCtGv2i-35" value="Удалить" style="rounded=1;html=1;shadow=0;dashed=0;whiteSpace=wrap;fontSize=10;fillColor=#E6E6E6;align=center;strokeColor=#B3B3B3;fontColor=#333333;" parent="1" vertex="1">
          <mxGeometry x="495" y="295" width="70" height="30" as="geometry" />
        </mxCell>
        <mxCell id="nJXYtws18elxILCtGv2i-36" value="Удалить" style="rounded=1;html=1;shadow=0;dashed=0;whiteSpace=wrap;fontSize=10;fillColor=#E6E6E6;align=center;strokeColor=#B3B3B3;fontColor=#333333;" parent="1" vertex="1">
          <mxGeometry x="495" y="346" width="70" height="30" as="geometry" />
        </mxCell>
        <mxCell id="nJXYtws18elxILCtGv2i-37" value="Новая задача" style="strokeWidth=1;shadow=0;dashed=0;align=center;html=1;shape=mxgraph.mockup.containers.window;align=left;verticalAlign=top;spacingLeft=8;strokeColor2=#008cff;strokeColor3=#c4c4c4;fontColor=#666666;mainText=;fontSize=17;labelBackgroundColor=none;whiteSpace=wrap;" parent="1" vertex="1">
          <mxGeometry x="40" y="420" width="550" height="340" as="geometry" />
        </mxCell>
        <mxCell id="nJXYtws18elxILCtGv2i-38" value="Сохранить" style="rounded=1;html=1;shadow=0;dashed=0;whiteSpace=wrap;fontSize=10;fillColor=#E6E6E6;align=center;strokeColor=#B3B3B3;fontColor=#333333;" parent="1" vertex="1">
          <mxGeometry x="469.5" y="718" width="105.5" height="30" as="geometry" />
        </mxCell>
        <mxCell id="nJXYtws18elxILCtGv2i-39" value="Отмена" style="rounded=1;html=1;shadow=0;dashed=0;whiteSpace=wrap;fontSize=10;fillColor=#E6E6E6;align=center;strokeColor=#B3B3B3;fontColor=#333333;" parent="1" vertex="1">
          <mxGeometry x="355" y="718" width="105.5" height="30" as="geometry" />
        </mxCell>
        <mxCell id="nJXYtws18elxILCtGv2i-40" value="Введите заголовок задачи..." style="html=1;shadow=0;dashed=0;shape=mxgraph.bootstrap.rrect;rSize=5;strokeWidth=1;whiteSpace=wrap;align=left;verticalAlign=middle;spacingLeft=10;fontSize=14;editable=1;movable=1;resizable=1;rotatable=1;deletable=1;locked=0;connectable=1;" parent="1" vertex="1">
          <mxGeometry x="55" y="490" width="520" height="40" as="geometry" />
        </mxCell>
        <mxCell id="nJXYtws18elxILCtGv2i-41" value="Введите описание задачи..." style="html=1;shadow=0;dashed=0;shape=mxgraph.bootstrap.rrect;rSize=5;strokeWidth=1;whiteSpace=wrap;align=left;verticalAlign=top;spacingLeft=10;fontSize=14;editable=1;movable=1;resizable=1;rotatable=1;deletable=1;locked=0;connectable=1;" parent="1" vertex="1">
          <mxGeometry x="55" y="570" width="520" height="130" as="geometry" />
        </mxCell>
        <mxCell id="nJXYtws18elxILCtGv2i-42" value="&lt;font style=&quot;font-size: 14px;&quot;&gt;Заголовок задачи:&lt;/font&gt;" style="text;html=1;strokeColor=none;fillColor=none;align=left;verticalAlign=middle;whiteSpace=wrap;rounded=0;" parent="1" vertex="1">
          <mxGeometry x="55" y="460" width="510" height="30" as="geometry" />
        </mxCell>
        <mxCell id="nJXYtws18elxILCtGv2i-43" value="&lt;font style=&quot;font-size: 14px;&quot;&gt;Описание задачи:&lt;/font&gt;" style="text;html=1;strokeColor=none;fillColor=none;align=left;verticalAlign=middle;whiteSpace=wrap;rounded=0;" parent="1" vertex="1">
          <mxGeometry x="55" y="540" width="510" height="30" as="geometry" />
        </mxCell>
        <mxCell id="nJXYtws18elxILCtGv2i-44" value="Удалить задачу" style="strokeWidth=1;shadow=0;dashed=0;align=center;html=1;shape=mxgraph.mockup.containers.window;align=left;verticalAlign=top;spacingLeft=8;strokeColor2=#008cff;strokeColor3=#c4c4c4;fontColor=#666666;mainText=;fontSize=17;labelBackgroundColor=none;whiteSpace=wrap;" parent="1" vertex="1">
          <mxGeometry x="640" y="50" width="360" height="155" as="geometry" />
        </mxCell>
        <mxCell id="nJXYtws18elxILCtGv2i-45" value="Удалить" style="rounded=1;html=1;shadow=0;dashed=0;whiteSpace=wrap;fontSize=10;fillColor=#E6E6E6;align=center;strokeColor=#B3B3B3;fontColor=#333333;" parent="1" vertex="1">
          <mxGeometry x="874.5" y="155" width="105.5" height="30" as="geometry" />
        </mxCell>
        <mxCell id="nJXYtws18elxILCtGv2i-46" value="Отмена" style="rounded=1;html=1;shadow=0;dashed=0;whiteSpace=wrap;fontSize=10;fillColor=#E6E6E6;align=center;strokeColor=#B3B3B3;fontColor=#333333;" parent="1" vertex="1">
          <mxGeometry x="760" y="155" width="105.5" height="30" as="geometry" />
        </mxCell>
        <mxCell id="nJXYtws18elxILCtGv2i-49" value="&lt;font style=&quot;font-size: 14px;&quot;&gt;Вы действительно хотите удалить задачу? Если да, то нажмите кнопку &quot;Удалить&quot;, иначе нажмите &quot;Отмена&quot;.&amp;nbsp;&lt;/font&gt;" style="text;html=1;strokeColor=none;fillColor=none;align=left;verticalAlign=top;whiteSpace=wrap;rounded=0;" parent="1" vertex="1">
          <mxGeometry x="655" y="90" width="325" height="65" as="geometry" />
        </mxCell>
      </root>
    </mxGraphModel>
  </diagram>
</mxfile>
